<?xml version="1.0" encoding="utf-8"?>
<!-- Generator: Adobe Illustrator 25.0.0, SVG Export Plug-In . SVG Version: 6.00 Build 0)  -->
<svg version="1.1" id="Layer_1" xmlns="http://www.w3.org/2000/svg" xmlns:xlink="http://www.w3.org/1999/xlink" x="0px" y="0px"
	 viewBox="0 0 1137 170" style="enable-background:new 0 0 1137 170;" xml:space="preserve">
<style type="text/css">
	.st0{fill:none;stroke:#2A140E;stroke-width:0.3;}
	.st1{fill:none;stroke:#674F42;stroke-width:0.3;}
	.st2{fill:none;stroke:#92664E;stroke-width:0.3;}
	.st3{fill:none;stroke:#774B37;stroke-width:0.3;}
	.st4{fill:none;stroke:#976C53;stroke-width:0.3;}
	.st5{fill:none;stroke:#5A3C2F;stroke-width:0.3;}
	.st6{fill:none;stroke:#9A7A69;stroke-width:0.3;}
	.st7{fill:none;stroke:#C1A689;stroke-width:0.3;}
	.st8{fill:none;stroke:#DBC3A2;stroke-width:0.3;}
	.st9{fill:none;stroke:#907564;stroke-width:0.3;}
	.st10{fill:none;stroke:#EADEC8;stroke-width:0.3;}
	.st11{fill:none;stroke:#A3886F;stroke-width:0.3;}
	.st12{fill:none;stroke:#252116;stroke-width:0.3;}
	.st13{fill:none;stroke:#221D14;stroke-width:0.3;}
	.st14{fill:none;stroke:#1E1812;stroke-width:0.3;}
	.st15{fill:none;stroke:#201B14;stroke-width:0.3;}
	.st16{fill:none;stroke:#1E1A15;stroke-width:0.3;}
	.st17{fill:none;stroke:#E1D8CB;stroke-width:0.3;}
	.st18{fill:none;stroke:#1B1913;stroke-width:0.3;}
	.st19{fill:none;stroke:#1F1912;stroke-width:0.3;}
	.st20{fill:none;stroke:#1C1812;stroke-width:0.3;}
	.st21{fill:none;stroke:#1C1912;stroke-width:0.3;}
	.st22{fill:none;stroke:#1D1911;stroke-width:0.3;}
	.st23{fill:none;stroke:#1B1912;stroke-width:0.3;}
	.st24{fill:none;stroke:#1E1A12;stroke-width:0.3;}
	.st25{fill:none;stroke:#1E1915;stroke-width:0.3;}
	.st26{fill:none;stroke:#CCC7C4;stroke-width:0.3;}
	.st27{fill:none;stroke:#D2D0CC;stroke-width:0.3;}
	.st28{fill:none;stroke:#D8D2C7;stroke-width:0.3;}
	.st29{fill:none;stroke:#DAD5C8;stroke-width:0.3;}
	.st30{fill:none;stroke:#D9D4C9;stroke-width:0.3;}
	.st31{fill:none;stroke:#C9C6C0;stroke-width:0.3;}
	.st32{fill:none;stroke:#211B13;stroke-width:0.3;}
	.st33{fill:none;stroke:#422414;stroke-width:0.3;}
	.st34{fill:none;stroke:#79523B;stroke-width:0.3;}
	.st35{fill:none;stroke:#714E40;stroke-width:0.3;}
	.st36{fill:none;stroke:#492C1D;stroke-width:0.3;}
	.st37{fill:none;stroke:#7B6755;stroke-width:0.3;}
	.st38{fill:none;stroke:#81573D;stroke-width:0.3;}
	.st39{fill:none;stroke:#8C6143;stroke-width:0.3;}
	.st40{fill:none;stroke:#6D5342;stroke-width:0.3;}
	.st41{fill:#2A140E;}
	.st42{fill:#674F42;}
	.st43{fill:#92664E;}
	.st44{fill:#774B37;}
	.st45{fill:#976C53;}
	.st46{fill:#5A3C2F;}
	.st47{fill:#9A7A69;}
	.st48{fill:#C1A689;}
	.st49{fill:#DBC3A2;}
	.st50{fill:#907564;}
	.st51{fill:#EADEC8;}
	.st52{fill:#A3886F;}
	.st53{fill:#252116;}
	.st54{fill:#221D14;}
	.st55{fill:#1E1812;}
	.st56{fill:#201B14;}
	.st57{fill:#1E1A15;}
	.st58{fill:#E1D8CB;}
	.st59{fill:#1B1913;}
	.st60{fill:#1F1912;}
	.st61{fill:#1C1812;}
	.st62{fill:#1C1912;}
	.st63{fill:#1D1911;}
	.st64{fill:#1B1912;}
	.st65{fill:#1E1A12;}
	.st66{fill:#CCC7C4;}
	.st67{fill:#D2D0CC;}
	.st68{fill:#D8D2C7;}
	.st69{fill:#DAD5C8;}
	.st70{fill:#D9D4C9;}
	.st71{fill:#C9C6C0;}
	.st72{fill:#211B13;}
	.st73{fill:#422414;}
	.st74{fill:#79523B;}
	.st75{fill:#714E40;}
	.st76{fill:#492C1D;}
	.st77{fill:#7B6755;}
	.st78{fill:#81573D;}
	.st79{fill:#8C6143;}
	.st80{fill:#6D5342;}
</style>
<g>
	<g>
		<path class="st0" d="M55.1,2.3C-0.5,10.2-1.6,50.7-0.3,85.7s-5.7,81.1,55.4,82.1c8,0.1,16,0,24,0c111.5,0,222.8,0.8,334.3,0
			c111.5-0.8,222.8,2,334.3,0s224.7,4.6,336.2,0c53.7-2.2,53.6-46.5,51.7-77.9c-1.9-31.4,11.9-76.5-38.8-86.2
			c-25.9-5-56-0.3-83.1-1.4c-27.2-1.1-55.8,0-83.1,0c-25,1.8-53.1,1.4-79.4,1.4c-22.8,0-45.6,0-68.3,0c-73.3,0-146.5,0-219.8,0
			c-33.5,0-68.2,0.1-101.6,0c-33.4-0.1-66.6,0.1-99.7,0c-33.2-0.1-68.9,0.3-101.6,0c-32.7-0.3-65.2-3.9-97.9-1.4S95.8-2.3,64.3,0.9
			C61.5,1.1,58.1,1.8,55.1,2.3 M236.1,7.8c4.1-0.2,7.4-1.1,11.1-1.4c32.8-2.7,66.7,1,99.7,0s66.7,0,99.7,0c85.6,0,171.2,0,256.7,0
			c44.1,0,91-0.9,134.8,0c43.9,0.9,91.9-2.5,134.8,0s91.9-8.1,129.3,5.6c38.4,14,19.8,49.7,24,76.5c-3.3-0.3-6.2,2.1-7.4,4.2
			c1.9-0.4,3.2-1.9,5.5-1.4c-2.8,4.6-7.8,7.1-14.8,7c-0.7,2.1,2.6,3.3,1.8,5.6c4.5-2.2,10.4-4.1,14.8-7c0.9,24.2,0.8,64.7-42.5,65.4
			c-43.3,0.6-87.6-0.3-131.1,0s-87.5-0.1-131.1,0s-87.5-0.1-131.1,0c-43.7,0.1-87.4,0-131.1,0s-87.4,0-131.1,0
			c-43.7,0-87.4,0-131.1,0c2.6-1.8,7.1-2.8,11.1-2.8c16.8-3,31.1-6.3,48.1-9.7c17-3.4,30.8-8.5,49.8-8.4c19,0.1,41.2,0,61,0
			c19.7,0,40.9,0,61,0c20.1,0,40.7,0,61,0c20.3,0,40.5,0,61,0s42.3,0,62.8,0c20.5,0,40.6-0.1,61,0c20.4,0.1,40.7-0.2,61,0
			c20.3,0.2,40.7-0.5,61,0c20.2,0.5,40.9-1.2,61,0c20,1.2,41.3-2.6,61,0c19.7,2.6,41.3-4.5,59.1-2.8c19.1-6.6,12.9-26.3,12.9-38.9
			c0-23.7,10.4-65.9-31.4-68.2c-41.8-2.2-80.2-1.3-121.9-1.4c-41.7-0.1-82.3,0-123.8,0c-41.5,0-82.4,0-123.8,0
			c-41.4,0-82.5,0-123.8,0c-41.3,0-82.5,0-123.8,0s-82.5,0-123.8,0s-82.5,0-123.8,0c-6.8,0-13.5,0-20.3,0c-25.9,0-55.8,0.8-81.3,0
			c-25.5-0.8-43.4,7-46.2,26.4c-2.8,19.4-1.3,41.2-1.8,61.2c0.3,1.1,1.7,2.3,1.8,4.2c11.8,29,61.3,16,96,18.1s84.6-1.4,121.9,0
			s83.7-2.2,120.1,1.4c-5.3-0.5-10,0.4-14.8,1.4c-28.6,4.8-54.4,8.9-82.5,15.7c-28.1,6.9-67.8,2.9-98.5,3.7s-74.6-0.7-103.4,0
			s-65.7,0.7-72-23.6c-0.7-2.9-1.6-6.4,1.8-9.7c-2.2-0.9-4.8-2.3-5.5-4.2c-8.1-16,0.5-40-1.8-57s1.6-33.2,16.2-46.2
			c14.6-13,34.6-14.7,57.7-15c23.1-0.3,53,1.1,77.6,0S211.6,8.8,236.1,7.8 M1082.1,56.5c2.6,12.2-0.8,29.7,0,41.7
			s2.1,28.2-12.9,33.4c-2,0.7-2.7,1.2-5.5,1.4c-27.1,5.1-57.7,0-86.8,1.4c-29.1,1.3-61-0.6-90.5,0c-29.5,0.6-58.9-0.3-88.7,0
			c-29.7,0.3-60.7-0.1-90.5,0s-58.8,0-88.7,0c-29.8,0-60.7,0.1-90.5,0c-29.8-0.1-58.9,0.3-88.7,0c-29.7-0.3-61,0.6-90.5,0
			s-59.5,1.3-88.7,0s-62.2,2.7-90.5,0c-28.4-2.7-63.5,6.6-88.7-1.4c-0.9,0-2.8,0-3.7,0c-28.7,0.9-23.8-28.8-24-44.5
			s-5.1-39.8,18.5-48.7c28.6-10.8,67.4,0.2,99.7-2.8s69.9,1.3,103.4,0c33.6-1.3,69.2,0.6,103.4,0c34.2-0.6,70.9,0.3,105.3,0
			c34.4-0.3,69.1,0.1,103.4,0c34.3-0.1,69.2,0,103.4,0c34.2,0,71.6-0.2,105.3,0c33.7,0.2,71.1-0.4,103.4,0
			c32.3,0.4,73.9-0.9,103.4,0C1032.2,37.9,1076.3,29.2,1082.1,56.5z"/>
	</g>
	<g>
		<path class="st1" d="M851.2,3.7c26.4,0,54.4,0.4,79.4-1.4C904.3,2.3,876.2,1.8,851.2,3.7z"/>
	</g>
	<g>
		<path class="st2" d="M8.9,124.7c3.6,4.8,14.4,6.8,20.3,8.3c4.2,0.4,8.7-0.3,12.9,0c0-5.2,3.1-9.8,1.8-15.3
			c0.5-20-0.9-41.8,1.8-61.2C48.6,37.1,66.6,29.3,92,30.1c25.5,0.8,55.4,0,81.3,0c20.9-4.3,41.9-17.3,62.8-22.3
			c-24.5,1-53-2.5-77.6-1.4s-54.5-0.3-77.6,0c-23.1,0.3-43.1,1.9-57.7,15C8.7,34.4,4.7,50.6,7.1,67.6S0.8,108.6,8.9,124.7z"/>
	</g>
	<g>
		<path class="st3" d="M236.1,7.8c-20.9,5-41.9,18-62.8,22.3c6.8,0,13.5,0,20.3,0c-1.5-0.2-6.2-1.7-7.4-2.8
			c47.2-23.6,108.7-11.9,162.5-16.7c-10.8-1.9-23.8-1.1-35.1-1.4c-11.3-0.3-26.4,0.6-36.9,0c-10.6-0.6-27.5,2.7-29.6-2.8
			C243.5,6.7,240.2,7.7,236.1,7.8z"/>
	</g>
	<g>
		<path class="st4" d="M193.6,30.1c41.3,0,82.5,0,123.8,0s82.5,0,123.8,0s82.5,0,123.8,0c41.3,0,82.4,0,123.8,0
			c41.4,0,82.3,0,123.8,0c41.5,0,82-0.1,123.8,0c41.7,0.1,80.1-0.8,121.9,1.4c41.8,2.2,31.4,44.4,31.4,68.2c0.3,1.1,3.5,3.5,1.8,5.6
			c3.7-2.5,1-7.6,1.8-11.1c3.2,1.9,0.3,9.6,7.4,5.6c1.6-1.4,14.1-4.6,18.5-7c1.2-2,4.1-4.5,7.4-4.2c-4.2-26.8,14.4-62.5-24-76.5
			c-10.6-1.6-18.4-2.2-31.4-2.8c-13-0.6-30.3,0.3-44.3,0c-14-0.3-29.9,0.1-44.3,0c-14.4-0.1-29.7,0.1-44.3,0
			c-14.6-0.1-29.6,0-44.3,0c-14.7,0-29.6,0-44.3,0c-14.7,0-29.6,0-44.3,0s-29.6,0.1-44.3,0c-14.7-0.1-29.7,0.2-44.3,0
			c-14.6-0.2-29.8,0.5-44.3,0c-14.5-0.5-28.6,1.1-42.5,1.4c-13.9,0.3-28.8-2.7-42.5-1.4c-13.7,1.3-29.7-0.3-35.1-1.4
			c-34.8,0-72,1-105.3-1.4c-33.1,0-66.7-1-99.7,0s-67-2.7-99.7,0c2,5.5,19,2.1,29.6,2.8c10.6,0.6,25.7-0.3,36.9,0
			c11.3,0.3,24.3-0.5,35.1,1.4c-53.8,4.8-115.4-6.9-162.5,16.7C187.4,28.4,192.1,29.9,193.6,30.1z"/>
	</g>
	<g>
		<path class="st5" d="M552,7.8c50,0,103.1,2.1,151.5-1.4c-85.6,0-171.2,0-256.7,0C480,8.9,517.1,7.8,552,7.8z"/>
	</g>
	<g>
		<path class="st6" d="M552,7.8c5.4,1,21.4,2.7,35.1,1.4c13.7-1.3,28.6,1.7,42.5,1.4c13.9-0.3,28-1.9,42.5-1.4
			c14.5,0.5,29.7-0.2,44.3,0c14.6,0.2,29.6-0.1,44.3,0c14.7,0.1,29.6,0,44.3,0s29.6,0,44.3,0c14.7,0,29.6,0,44.3,0
			c14.7,0,29.7-0.1,44.3,0c14.6,0.1,29.9-0.1,44.3,0c14.4,0.1,30.3-0.3,44.3,0c14,0.3,31.3-0.6,44.3,0c13,0.6,20.8,1.2,31.4,2.8
			c-37.4-13.6-86.4-3.1-129.3-5.6s-91,0.9-134.8,0c-43.9-0.9-90.7,0-134.8,0C655,10,601.9,7.8,552,7.8z"/>
	</g>
	<g>
		<path class="st7" d="M71.7,39.8C49.3,50.6,59,70.9,56.9,88.5s-1,35.3,20.3,44.5c0.9,0,2.8,0,3.7,0c81.8,0,163.8,0.4,245.7,0
			c81.8-0.4,163.9,1,245.7,0c81.8-1,164,2.4,245.7,0c81.6-2.4,164.4,5.2,245.7,0c2.9-0.2,3.5-0.7,5.5-1.4c5.9-5.3,6.5-23.3,8.8-32.3
			c2.3-9,1.8-13.9,0.4-21.9c-1.4-8.1,3.4-14.8,3.7-20.9c-5.8-27.3-49.9-18.6-79.4-19.5c-29.5-0.9-71.1,0.4-103.4,0
			c-32.3-0.4-69.8,0.2-103.4,0c-33.7-0.2-71.1,0-105.3,0c-34.2,0-69.1-0.1-103.4,0c-34.3,0.1-69-0.3-103.4,0
			c-34.4,0.3-71.1-0.6-105.3,0c-34.2,0.6-69.9-1.3-103.4,0c-33.6,1.3-71.1-3-103.4,0S100.3,29.1,71.7,39.8 M841.9,39.8
			c6-0.4,12.4,0,18.5,0c20.6,0,40.2,0,61,0c20.7,0,42,0,62.8,0c20.8,0,41.9-0.1,62.8,0c20.9,0.1,28.4,11.2,27.7,26.4
			s0.2,29.1-3.7,44.5c-3.9,15.4-17.8,18.2-38.8,16.7c-21-1.5-41.9,0.7-62.8,0c-20.9-0.7-41.9,0.3-62.8,0c-20.9-0.3-41.9,0.1-62.8,0
			c-20.9-0.1-41.9,0.1-62.8,0c-20.9-0.1-42,0-62.8,0c-20.8,0-40.2,0.1-61,0c-20.7-0.1-42,0.1-62.8,0c-20.8-0.1-42.1,0.2-62.8,0
			c-20.7-0.2-42.3,0.4-62.8,0c-20.5-0.4-40.3-1.7-61-1.4c-20.7,0.3-40.5,0.2-61,0s-39-2.3-59.2-0.1c-20.2,2.1-42.2-1.2-62.7,0.1
			s-42.4-1.4-62.8,0s-39.1-4.2-59.1-2.8c-20,1.4-28.5-9.4-40.6-13.9c0-5.6,0-11.1,0-16.7c-3.7,2.5-1,7.6-1.8,11.1
			C59,85.5,52.8,61.5,68,45.4c9.9,0.9,20.7-6.9,36.9-5.6c16.3,1.3,36.6-0.6,53.6,0c17,0.6,34.4-0.3,51.7,0c17.4,0.3,36-0.1,53.6,0
			s36-0.1,53.6,0c17.6,0.1,34.2,0,51.7,0s36,0,53.6,0s34.1,0,51.7,0s35.9,0,53.6,0c17.7,0,36,0,53.6,0s34.2,0.1,51.7,0
			c17.5-0.1,36.2,0.1,53.6,0c17.4-0.1,34.6,0.3,51.7,0c17.2-0.3,34.3-2.3,51.7-1.4C807.6,39.4,826.2,36.5,841.9,39.8z"/>
	</g>
	<g>
		<path class="st8" d="M860.4,39.8c15.9,1.2,34.5,1.7,51.7,1.4c17.2-0.3,36.6-0.1,53.6,0s37.5-0.5,53.6,0s38.4-3.9,42.5,8.3
			c3.2-5.4,9.6-0.3,7.4,4.2c-8-4.1,2.8,11,0,20.9s-2.2,20.3-8.8,29.5c-6.6,9.2-13.6,11.9-28.1,12.2c-14.5,0.3-24.8,2.4-40.6,1.4
			c-15.9-1-31,0.3-46.2-1.4c-15.2-1.7-32.8,0.6-48,0c-15.2-0.6-31.3-0.2-46.2,0c-14.8,0.2-31.3,2.8-46.2,1.4
			c-14.9-1.4-27.5-1.4-41.9-0.9c-14.4,0.5-30.3,1.1-44.9,0.9c-14.7-0.1-31.6,2.3-46.2,1.4s-33.6,3.4-35.1-9.7
			c-2.4,4.7-6.7,11-14.8,4.2c-0.4,8-2.9-1-1.8-4.2c-3.1,12.8-8.3-4.3-7.4,8.3c-3.8-7-1.6-6.8-5.5,0c-5.1,0.4-2-4.8-5.5-7
			c-6.5,15.3-34.7,7.3-55.4,9.7c-20.7,2.4-50.6-1.3-72,0s-43.3-1.3-65.9-1.9c-22.6-0.5-47.7-1.1-70.8-0.9
			c-23.1,0.1-46.5-0.7-68.5-0.1s-47.6-2.4-69.5-1.8c-21.9,0.7-46.5,0.1-68.3-1.4s-38.2,0-51-13c-12.9-13-8.9-25.5-8.8-42.3
			c0.1-16.7,28.1-18.1,50-16.6c21.9,1.5,47-2.5,70.2-1.4c23.1,1.1,48.4-0.5,72,0c23.7,0.5,48-0.2,72,0c24,0.2,49.8-0.1,73.9,0
			c24.1,0.1,48,0,72,0s48,0,72,0c24,0,48,0.1,72,0c24-0.1,48.1,0.2,72,0c24-0.2,48.2,0.4,72,0s49.7,1.4,72-1.4
			c-15.8-3.3-34.3-0.4-51.7-1.4c-17.4-0.9-34.6,1.1-51.7,1.4c-17.2,0.3-34.3-0.1-51.7,0c-17.4,0.1-36.1-0.1-53.6,0
			c-17.5,0.1-34.1,0-51.7,0s-35.9,0-53.6,0c-17.7,0-36,0-53.6,0s-34.1,0-51.7,0s-36,0-53.6,0s-34.2,0.1-51.7,0
			c-17.6-0.1-36,0.1-53.6,0s-36.2,0.3-53.6,0c-17.4-0.3-34.7,0.6-51.7,0c-17-0.6-37.3,1.3-53.6,0c-16.3-1.3-27.1,6.4-36.9,5.6
			c-15.2,16.1-9,40.1-7.4,58.4c0.9-3.5-1.9-8.7,1.8-11.1c0,5.6,0,11.1,0,16.7c12.1,4.5,20.6,15.3,40.6,13.9
			c20-1.4,38.7,4.2,59.1,2.8s42.3,1.3,62.8,0s42.4,2,62.7-0.1c20.2-2.2,38.8-0.1,59.2,0.1s40.3,0.3,61,0c20.7-0.3,40.4,1,61,1.4
			c20.5,0.4,42.1-0.2,62.8,0c20.7,0.2,42-0.1,62.8,0c20.8,0.1,42.1-0.1,62.8,0c20.7,0.1,40.2,0,61,0c20.8,0,41.9-0.1,62.8,0
			c20.9,0.1,41.9-0.1,62.8,0c20.9,0.1,41.9-0.3,62.8,0c20.9,0.3,41.9-0.7,62.8,0c20.9,0.7,41.8-1.5,62.8,0
			c21,1.5,34.9-1.3,38.8-16.7c3.9-15.4,2.9-29.3,3.7-44.5s-6.8-26.3-27.7-26.4c-20.9-0.1-42,0-62.8,0c-20.8,0-42.1,0-62.8,0
			C900.7,39.8,881,39.8,860.4,39.8z"/>
	</g>
	<g>
		<path class="st9" d="M77.2,133c-21.3-9.2-22.4-26.9-20.3-44.5s-7.7-37.9,14.8-48.7c-23.5,8.9-18.6,33-18.5,48.7
			S48.5,133.9,77.2,133z"/>
	</g>
	<g>
		<path class="st10" d="M860.4,39.8c-6.1,0-12.4-0.4-18.5,0c-22.3,2.8-48.2,1-72,1.4s-48.1-0.2-72,0c-24,0.2-48-0.1-72,0
			c-24,0.1-48,0-72,0c-24,0-48,0-72,0s-47.9,0.1-72,0c-24.1-0.1-49.9,0.2-73.9,0c-24-0.2-48.4,0.5-72,0c-23.7-0.5-48.9,1.1-72,0
			c-23.1-1.1-48.3,2.9-70.2,1.4c-21.9-1.5-49.9-0.1-50,16.6c-0.1,16.7-4,29.3,8.8,42.3c12.9,13,29.2,11.5,51,13s46.5,2.1,68.3,1.4
			c21.9-0.7,47.5,2.4,69.5,1.8s45.4,0.2,68.5,0.1c23.1-0.1,48.2,0.4,70.8,0.9c22.6,0.5,44.4,3.1,65.9,1.9s51.3,2.4,72,0
			c20.7-2.4,48.9,5.6,55.4-9.7c3.6,2.1,0.4,7.4,5.5,7c3.9-6.8,1.7-7,5.5,0c-0.9-12.7,4.3,4.5,7.4-8.3c-1.1,3.2,1.5,12.2,1.8,4.2
			c8.1,6.8,12.4,0.6,14.8-4.2c1.5,13.1,20.5,8.8,35.1,9.7s31.5-1.5,46.2-1.4c14.7,0.1,30.6-0.5,44.9-0.9c14.4-0.4,27-0.4,41.9,0.9
			c14.9,1.4,31.3-1.2,46.2-1.4c14.8-0.2,31-0.6,46.2,0c15.2,0.6,32.8-1.7,48,0c15.2,1.7,30.3,0.4,46.2,1.4c15.9,1,26.1-1.1,40.6-1.4
			c14.5-0.3,21.5-3,28.1-12.2c6.6-9.2,6-19.7,8.8-29.5s-8-25,0-20.9c2.2-4.5-4.2-9.6-7.4-4.2c-4.1-12.2-26.4-7.8-42.5-8.3
			s-36.6,0.1-53.6,0s-36.4-0.3-53.6,0C895,41.5,876.3,41,860.4,39.8 M286,67.6C284.1,52.4,307.9,70.7,286,67.6 M579.7,70.4
			c5.5,0,11.1,0,16.6,0c1.9,6.5,6.2,12.5,5.5,19.5c7.1-6.2,3.4-22.8,20.3-19.5c0.2,9.5-11.5,13.1-12.5,22.6
			c-1,9.5-15.3,17.4-15.6,7.7c-0.3-9.7,2.3-17.8-6.6-25.1c-8.8-7.2-10.4,19.1,1.4,18.4c-14.6,7.9-14.5-3-16.6-11.1
			c-2.1-8.1-8.3-14.3,0-22.3C576.7,62.6,578.6,66.9,579.7,70.4 M112.3,96.8c0-11.1,0-22.3,0-33.4c17.2-1.7,39.7,0.6,40.6,16.7
			C153.9,96.3,129.6,99.2,112.3,96.8 M511.3,64.9c-3,8.2,10.3,4.9,16.6,5.6c3.8,5.7,4.1,13.2,9.2,18.1c-0.4-3.7,8.1-23.6,14.3-16.3
			c6.2,7.3-9.4,15.9-8.6,23.4c0.8,7.5-16.4,17.2-22.3,6.9c18.7-2.9,2.1-19,0-27.8c-13.7,0.8-11,17.5,1.8,18.1
			c-2.4,6.6-13.2,4.6-18-0.3c-4.8-4.9,2.2-16-9.7-16.3C496.3,70.3,502.1,64.7,511.3,64.9 M694.2,85.7c-7.7,0.9-17.8-1.8-24,1.4
			c7.1,8.4,16-1.4,24,4.2c-11.9,12.2-40.4,2.4-33.3-12.5C668,63.7,696.9,69.5,694.2,85.7 M177,70.4c22.2,3.3,14,31.4-9.2,26.4
			S155,67.2,177,70.4 M245.3,96.8c-19.2,3.6-1.1-14.7-11.6-19.1c-10.4-4.5-9.8,13.7-8.8,19.1c-18.9,3.3-1.5-14-11.7-19
			c-10.2-5.1-9.8,13.7-8.7,19c-17.7,2.9-8.1-9.9-11.1-18.1s13.4-11.1,22.2-8.3c8.8,2.7,16.3-2.6,25.4,1.8
			C250.2,76.6,243,90.1,245.3,96.8 M280.4,96.8c-10.9-7.3-19.8,8.9-30-2.4C240.3,83,268.6,82.9,267.5,76c-6.8,3.8-20.4,1.5-14.3-3.8
			c6.1-5.3,20.2-2.9,24,2.1C281,79.3,278.2,90.9,280.4,96.8 M295.2,96.8c-17.5,1.4-5.9-18.2-9.2-26.4
			C303.1,70,292.1,88.7,295.2,96.8 M332.1,96.8c-18.8,4.3-1.6-16.6-12.5-19.8c-10.9-3.2-10.8,14.7-9.7,19.8
			c-17.5,1.4-5.9-18.2-9.2-26.4c8.8,4.8,18.6-3.9,27.2,1.8C336.6,77.8,330,89.4,332.1,96.8 M383.9,85.7c-7.4,0-14.8,0-22.2,0
			c-1,9.4,13.6,4,20.3,4.2c-8,14.2-36.9,5.1-30-10C359,64.7,385.9,69.6,383.9,85.7 M433.7,74.6c20.7-17.4,36.7,20.1,14.8,22.3
			c0.3-6.7,0.1-13.2-1.8-19.5c-14.5-0.2-7.7,14-9.2,20.9c-19.6,3-0.9-14-11-19.6c-10.1-5.6-11.4,12.5-9.4,18.2
			C400.4,99.3,412,82.4,406,76c-13.1,1.6-8.5,13.6-9.2,20.9c-15,3.4-13.7-28.7-0.6-26C409.3,73.6,423.5,67.4,433.7,74.6
			 M472.5,106.6c-17.3-2.2-10.5-25.6-9.2-36.2c11.7,4.3,27.1-6.1,31.4,11.1C498.9,98.8,469.5,92.3,472.5,106.6 M633.2,96.8
			c4.6,13.7-11.3,12.7-9.2,1.4c2.1-11.3-1.6-17,0-27.8c10.9,1.5,29.4-3.3,33.1,8.5C660.8,90.7,648.9,100.3,633.2,96.8 M721.9,78.8
			c-4.9-0.8-9.5-4.9-14.8-1.4c6.9,3.1,22.7,7.5,17,15.6c-5.7,8.1-25.9,4.9-26.3-3.1c6.6-0.9,11.8,2.3,18.5,1.4
			C712,86.1,691.8,84,698.4,75C705.1,66,729.2,68.9,721.9,78.8 M734.8,88.5c5.7,0.7,4.5,9.4-1.9,8.3
			C726.5,95.7,728.8,87.8,734.8,88.5z"/>
	</g>
	<g>
		<path class="st11" d="M1069.1,131.6c15.1-5.2,13.7-21.4,12.9-33.4s2.6-29.5,0-41.7c-0.3,6.1-5.1,12.8-3.7,20.9
			c1.4,8.1,1.9,12.9-0.4,21.9C1075.6,108.3,1075,126.3,1069.1,131.6z"/>
	</g>
	<g>
		<path class="st12" d="M286,67.6C307.9,70.7,284.1,52.4,286,67.6z"/>
	</g>
	<g>
		<path class="st13" d="M579.7,70.4c-1.1-3.6-3-7.8-7.4-9.7c-8.3,8-2.1,14.1,0,22.3c2.1,8.1,2,19.1,16.6,11.1
			c-11.8,0.7-10.3-25.6-1.4-18.4c8.8,7.2,6.3,15.4,6.6,25.1c0.3,9.7,14.6,1.8,15.6-7.7c1-9.5,12.7-13,12.5-22.6
			c-17-3.3-13.2,13.2-20.3,19.5c0.6-7-3.6-13-5.5-19.5C590.7,70.4,585.2,70.4,579.7,70.4z"/>
	</g>
	<g>
		<path class="st14" d="M112.3,96.8c17.2,2.4,41.5-0.5,40.6-16.7C152,64,129.5,61.8,112.3,63.5C112.3,74.6,112.3,85.7,112.3,96.8
			 M123.4,91.3c0-7,0-13.9,0-20.9C146.8,66.2,147.2,96,123.4,91.3z"/>
	</g>
	<g>
		<path class="st15" d="M511.3,64.9c-9.2-0.2-15,5.4-16.6,11.1c11.9,0.3,4.9,11.4,9.7,16.3c4.8,4.9,15.6,7,18,0.3
			c-12.8-0.6-15.5-17.3-1.8-18.1c2.1,8.8,18.7,24.9,0,27.8c5.9,10.3,23.1,0.6,22.3-6.9c-0.8-7.5,14.8-16.1,8.6-23.4
			c-6.2-7.3-14.7,12.6-14.3,16.3c-5.2-4.9-5.5-12.4-9.2-18.1C521.7,69.8,508.3,73.1,511.3,64.9z"/>
	</g>
	<g>
		<path class="st16" d="M694.2,85.7c2.7-16.2-26.2-22-33.3-7c-7.1,15,21.4,24.7,33.3,12.5c-8-5.6-16.9,4.2-24-4.2
			C676.3,83.9,686.5,86.6,694.2,85.7 M683.1,78.8C665.6,86.5,673,67.6,683.1,78.8z"/>
	</g>
	<g>
		<path class="st17" d="M123.4,91.3c23.8,4.7,23.3-25.1,0-20.9C123.4,77.4,123.4,84.3,123.4,91.3z"/>
	</g>
	<g>
		<path class="st18" d="M177,70.4c-22-3.3-32.5,21.4-9.2,26.4S199.2,73.7,177,70.4 M177,77.4c9.1,3.3,1.8,18-8.6,13.5
			C157.9,86.3,166.6,73.6,177,77.4z"/>
	</g>
	<g>
		<path class="st19" d="M245.3,96.8c-2.4-6.7,4.9-20.3-4.2-24.7c-9.1-4.4-16.6,1-25.4-1.8c-8.8-2.7-25.1,0.2-22.2,8.3
			s-6.6,21,11.1,18.1c-1.2-5.4-1.5-24.1,8.7-19c10.2,5.1-7.3,22.3,11.7,19c-1.1-5.4-1.7-23.6,8.8-19.1
			C244.2,82.2,226.1,100.5,245.3,96.8z"/>
	</g>
	<g>
		<path class="st20" d="M280.4,96.8c-2.2-5.9,0.6-17.6-3.2-22.6c-3.8-5-17.9-7.4-24-2.1c-6.1,5.3,7.5,7.6,14.3,3.8
			c1.1,6.9-27.2,7.1-17.1,18.4C260.6,105.8,269.5,89.6,280.4,96.8 M269.3,85.7C268,100.9,247.7,83.3,269.3,85.7z"/>
	</g>
	<g>
		<path class="st20" d="M295.2,96.8c-3.1-8.2,7.9-26.9-9.2-26.4C289.3,78.7,277.7,98.3,295.2,96.8z"/>
	</g>
	<g>
		<path class="st21" d="M332.1,96.8c-2.1-7.4,4.5-19.1-4.2-24.7c-8.6-5.6-18.4,3-27.2-1.8c3.3,8.2-8.3,27.9,9.2,26.4
			c-1.1-5.1-1.2-23,9.7-19.8C330.6,80.2,313.4,101.1,332.1,96.8z"/>
	</g>
	<g>
		<path class="st22" d="M383.9,85.7c2-16.1-24.9-21-31.8-5.9c-6.9,15.1,21.9,24.2,30,10c-6.7-0.2-21.4,5.2-20.3-4.2
			C369.1,85.7,376.5,85.7,383.9,85.7 M372.8,81.5C352.2,85.1,370,68.2,372.8,81.5z"/>
	</g>
	<g>
		<path class="st23" d="M433.7,74.6c-10.2-7.2-24.5-1-37.6-3.7c-13.1-2.7-14.4,29.4,0.6,26c0.7-7.2-3.9-19.2,9.2-20.9
			c5.9,6.5-5.7,23.3,11.1,20.9c-2-5.6-0.7-23.8,9.4-18.2c10.1,5.6-8.7,22.6,11,19.6c1.5-6.9-5.3-21,9.2-20.9
			c2,6.3,2.2,12.8,1.8,19.5C470.4,94.7,454.4,57.2,433.7,74.6z"/>
	</g>
	<g>
		<path class="st24" d="M472.5,106.6c-3.1-14.3,26.4-7.8,22.1-25c-4.3-17.2-19.7-6.8-31.4-11.1C462,81,455.2,104.4,472.5,106.6
			 M483.6,77.4c8.4,3.1,1.6,16.9-7.4,13.9C467.2,88.3,472.3,73.3,483.6,77.4z"/>
	</g>
	<g>
		<path class="st20" d="M633.2,96.8c15.6,3.4,27.6-6.2,23.9-18c-3.7-11.8-22.2-7-33.1-8.5c-1.6,10.8,2.1,16.5,0,27.8
			C621.9,109.5,637.8,110.5,633.2,96.8 M644.3,76c8.1,2.7,3,18.5-6.8,14.8C627.7,87.2,634.6,72.8,644.3,76z"/>
	</g>
	<g>
		<path class="st25" d="M721.9,78.8c7.3-9.9-16.8-12.8-23.4-3.7c-6.6,9,13.6,11,17.9,16.3c-6.6,0.9-11.9-2.3-18.5-1.4
			c0.4,8,20.6,11.2,26.3,3.1c5.7-8.1-10.1-12.5-17-15.6C712.3,73.9,717,77.9,721.9,78.8z"/>
	</g>
	<g>
		<path class="st26" d="M683.1,78.8C673,67.6,665.6,86.5,683.1,78.8z"/>
	</g>
	<g>
		<path class="st27" d="M372.8,81.5C370,68.2,352.2,85.1,372.8,81.5z"/>
	</g>
	<g>
		<path class="st28" d="M644.3,76c-9.8-3.2-16.6,11.2-6.8,14.8C647.4,94.4,652.5,78.7,644.3,76z"/>
	</g>
	<g>
		<path class="st29" d="M177,77.4c-10.4-3.8-19.1,8.9-8.6,13.5C178.8,95.4,186.1,80.7,177,77.4z"/>
	</g>
	<g>
		<path class="st30" d="M483.6,77.4c-11.3-4.1-16.4,10.9-7.4,13.9C485.2,94.3,492,80.4,483.6,77.4z"/>
	</g>
	<g>
		<path class="st31" d="M269.3,85.7C247.7,83.3,268,100.9,269.3,85.7z"/>
	</g>
	<g>
		<path class="st32" d="M734.8,88.5c-6-0.7-8.3,7.2-1.9,8.3C739.3,97.9,740.5,89.2,734.8,88.5z"/>
	</g>
	<g>
		<path class="st33" d="M1119,92.7c-4.3,2.3-16.8,5.6-18.5,7c-2.1,1.8-7.6,8.2-7.4,12.5c6.5-1.8,13.4-4.9,18.5-8.3
			c0.8-2.2-2.5-3.4-1.8-5.6c6.9,0.2,12-2.4,14.8-7C1122.2,90.8,1120.9,92.3,1119,92.7z"/>
	</g>
	<g>
		<path class="st34" d="M1089.5,99.6c0,12.7,6.2,32.4-12.9,38.9c0.4,0,9.5,4.6,12.9,5.6c-15.6-0.2-32.6,3.6-49.9,4.2
			c3.3,2.8,10.1,0.7,14.8,1.4c0.3,2.6,1.4,4.1,5.5,5.6c-10.7,0.7-3.5,4.7-22.2,2.8c-18.7-1.9-43.6-3.3-62.8-2.8
			c-19.2,0.5-19.7-0.3-35.1,0s-19.6-0.1-33.2,0c-13.7,0.1-19.6,0-33.2,0c-13.7,0-17.8,0-33.2,0c-15.5,0-15.6,0-35.1,0
			c-19.5,0-46.9,0-66.5,0c-19.6,0-17.5,0-35.1,0c8.2,3.1,20,0.5,29.6,1.4c-50,5.7-104.9,1.5-157,2.8c28-3.4,58.9-2.8,88.7-2.8
			c-107.2-2.1-219.7-3.2-326.9,1.4c6.9,4.1,16.7-1.2,24,1.4c-11,2.3-28,2.4-38.8,0c7.4,1.7,11.9-2.6,18.5-2.8
			c-9.9-4.1-23.5,7-33.2,2.8c-4-0.1-8.5,1-11.1,2.8c43.7,0,87.4,0,131.1,0c43.7,0,87.4,0,131.1,0s87.5,0.1,131.1,0
			c43.7-0.1,87.5,0.1,131.1,0s87.6,0.3,131.1,0s87.9,0.6,131.1,0c43.3-0.6,43.4-41.1,42.5-65.4c-4.4,2.8-10.3,4.7-14.8,7
			c-5.1,3.4-12,6.6-18.5,8.3c-0.2-4.3,5.2-10.7,7.4-12.5c-7.1,4-4.2-3.6-7.4-5.6c-0.9,3.5,1.9,8.7-1.8,11.1
			C1092.9,103.2,1089.7,100.7,1089.5,99.6z"/>
	</g>
	<g>
		<path class="st35" d="M29.2,133c4.2,1.1,9.3,3.5,14.8,2.8c-1.3-5,2.3-9,1.8-13.9c-0.1-1.9-1.5-3.1-1.8-4.2
			c1.2,5.5-1.9,10.1-1.8,15.3C37.9,132.7,33.5,133.4,29.2,133z"/>
	</g>
	<g>
		<path class="st36" d="M29.2,133c-6-1.6-16.7-3.6-20.3-8.3c0.8,1.9,3.3,3.2,5.5,4.2c-3.5,3.3-2.6,6.9-1.8,9.7
			c2-5.6,23.1,8,33.4,1.5c10.3-6.5,24.9,2.7,38.7,1.3s33.1,0.6,48,0s32.7,0.4,48,0c15.3-0.4,30.6,0.3,46.2,0c15.6-0.3,32.3,0.4,48,0
			c15.7-0.4,32.5,0.9,48,0c15.6-0.9,32.2,1.3,46.2,1.4c4.8-1,9.5-1.9,14.8-1.4c-36.4-3.6-82.8,0-120.1-1.4s-87.1,2.1-121.9,0
			s-84.2,10.9-96-18.1c0.4,4.9-3.2,8.9-1.8,13.9C38.6,136.5,33.4,134.1,29.2,133z"/>
	</g>
	<g>
		<path class="st37" d="M1063.6,133c-81.3,5.2-164-2.4-245.7,0c-81.6,2.4-163.9-1-245.7,0c-81.8,1-163.8-0.4-245.7,0
			c-81.8,0.4-163.8,0-245.7,0c25.1,8,60.3-1.3,88.7,1.4c28.4,2.7,61.3-1.3,90.5,0s59.1-0.6,88.7,0s60.8-0.3,90.5,0
			c29.7,0.3,58.9-0.1,88.7,0c29.8,0.1,60.7,0,90.5,0c29.8,0,58.9,0.1,88.7,0s60.8,0.3,90.5,0c29.7-0.3,59.1,0.6,88.7,0
			c29.5-0.6,61.4,1.3,90.5,0C1005.9,133.1,1036.5,138.1,1063.6,133z"/>
	</g>
	<g>
		<path class="st38" d="M12.6,138.6c6.3,24.4,43.2,24.4,72,23.6s72.8,0.8,103.4,0s70.3,3.1,98.5-3.7c28.2-6.9,54-11,82.5-15.7
			c-13.9-0.1-30.6-2.3-46.2-1.4c-15.6,0.9-32.3-0.4-48,0c-15.7,0.4-32.5-0.3-48,0c-15.6,0.3-30.8-0.4-46.2,0
			c-15.3,0.4-33.1-0.6-48,0s-34.2-1.4-48,0s-28.4-7.8-38.7-1.3C35.7,146.6,14.6,133,12.6,138.6z"/>
	</g>
	<g>
		<path class="st39" d="M308.1,159.4c9.8,4.2,23.4-6.9,33.2-2.8c-6.6,0.2-11.1,4.5-18.5,2.8c10.8,2.4,27.8,2.3,38.8,0
			c-7.3-2.6-17.1,2.7-24-1.4c107.2-4.5,219.7-3.5,326.9-1.4c-29.7,0-60.7-0.6-88.7,2.8c52.1-1.3,107,2.9,157-2.8
			c-9.5-0.8-21.4,1.7-29.6-1.4c17.6,0,15.5,0,35.1,0c19.6,0,47,0,66.5,0c19.5,0,19.6,0,35.1,0c15.5,0,19.6,0,33.2,0
			c13.7,0,19.6,0.1,33.2,0c13.7-0.1,17.9,0.3,33.2,0s15.9,0.5,35.1,0c19.2-0.5,44.1,0.8,62.8,2.8c18.7,1.9,11.5-2.1,22.2-2.8
			c-4.2-1.5-5.2-3-5.5-5.6c-4.7-0.7-11.5,1.4-14.8-1.4c17.2-0.5,34.3-4.3,49.9-4.2c-3.4-1-12.6-5.5-12.9-5.6
			c-17.8-1.8-39.4,5.3-59.1,2.8c-19.7-2.6-40.9,1.2-61,0c-20-1.2-40.7,0.5-61,0c-20.2-0.5-40.7,0.2-61,0c-20.3-0.2-40.6,0.1-61,0
			c-20.4-0.1-40.5,0-61,0c-20.5,0-42.4,0-62.8,0s-40.7,0-61,0c-20.3,0-40.9,0-61,0c-20.1,0-41.2,0-61,0c-19.7,0-41.9,0.1-61,0
			c-19-0.1-32.9,5-49.8,8.4C339.3,153.1,324.9,156.4,308.1,159.4z"/>
	</g>
	<g>
		<path class="st40" d="M79.1,169.2c-0.1,0,0-1.4,0-1.4c-8,0-16,0.1-24,0C62,168.4,70.9,169.2,79.1,169.2z"/>
	</g>
	<g>
		<path class="st41" d="M55.1,2.3C-0.5,10.2-1.6,50.7-0.3,85.7s-5.7,81.1,55.4,82.1c8,0.1,16,0,24,0c111.5,0,222.8,0.8,334.3,0
			c111.5-0.8,222.8,2,334.3,0s224.7,4.6,336.2,0c53.7-2.2,53.6-46.5,51.7-77.9c-1.9-31.4,11.9-76.5-38.8-86.2
			c-25.9-5-56-0.3-83.1-1.4c-27.2-1.1-55.8,0-83.1,0c-25,1.8-53.1,1.4-79.4,1.4c-22.8,0-45.6,0-68.3,0c-73.3,0-146.5,0-219.8,0
			c-33.5,0-68.2,0.1-101.6,0c-33.4-0.1-66.6,0.1-99.7,0c-33.2-0.1-68.9,0.3-101.6,0c-32.7-0.3-65.2-3.9-97.9-1.4S95.8-2.3,64.3,0.9
			C61.5,1.1,58.1,1.8,55.1,2.3 M236.1,7.8c4.1-0.2,7.4-1.1,11.1-1.4c32.8-2.7,66.7,1,99.7,0s66.7,0,99.7,0c85.6,0,171.2,0,256.7,0
			c44.1,0,91-0.9,134.8,0c43.9,0.9,91.9-2.5,134.8,0s91.9-8.1,129.3,5.6c38.4,14,19.8,49.7,24,76.5c-3.3-0.3-6.2,2.1-7.4,4.2
			c1.9-0.4,3.2-1.9,5.5-1.4c-2.8,4.6-7.8,7.1-14.8,7c-0.7,2.1,2.6,3.3,1.8,5.6c4.5-2.2,10.4-4.1,14.8-7c0.9,24.2,0.8,64.7-42.5,65.4
			c-43.3,0.6-87.6-0.3-131.1,0s-87.5-0.1-131.1,0s-87.5-0.1-131.1,0c-43.7,0.1-87.4,0-131.1,0s-87.4,0-131.1,0
			c-43.7,0-87.4,0-131.1,0c2.6-1.8,7.1-2.8,11.1-2.8c16.8-3,31.1-6.3,48.1-9.7c17-3.4,30.8-8.5,49.8-8.4c19,0.1,41.2,0,61,0
			c19.7,0,40.9,0,61,0c20.1,0,40.7,0,61,0c20.3,0,40.5,0,61,0s42.3,0,62.8,0c20.5,0,40.6-0.1,61,0c20.4,0.1,40.7-0.2,61,0
			c20.3,0.2,40.7-0.5,61,0c20.2,0.5,40.9-1.2,61,0c20,1.2,41.3-2.6,61,0c19.7,2.6,41.3-4.5,59.1-2.8c19.1-6.6,12.9-26.3,12.9-38.9
			c0-23.7,10.4-65.9-31.4-68.2c-41.8-2.2-80.2-1.3-121.9-1.4c-41.7-0.1-82.3,0-123.8,0c-41.5,0-82.4,0-123.8,0
			c-41.4,0-82.5,0-123.8,0c-41.3,0-82.5,0-123.8,0s-82.5,0-123.8,0s-82.5,0-123.8,0c-6.8,0-13.5,0-20.3,0c-25.9,0-55.8,0.8-81.3,0
			c-25.5-0.8-43.4,7-46.2,26.4c-2.8,19.4-1.3,41.2-1.8,61.2c0.3,1.1,1.7,2.3,1.8,4.2c11.8,29,61.3,16,96,18.1s84.6-1.4,121.9,0
			s83.7-2.2,120.1,1.4c-5.3-0.5-10,0.4-14.8,1.4c-28.6,4.8-54.4,8.9-82.5,15.7c-28.1,6.9-67.8,2.9-98.5,3.7s-74.6-0.7-103.4,0
			s-65.7,0.7-72-23.6c-0.7-2.9-1.6-6.4,1.8-9.7c-2.2-0.9-4.8-2.3-5.5-4.2c-8.1-16,0.5-40-1.8-57s1.6-33.2,16.2-46.2
			c14.6-13,34.6-14.7,57.7-15c23.1-0.3,53,1.1,77.6,0S211.6,8.8,236.1,7.8 M1082.1,56.5c2.6,12.2-0.8,29.7,0,41.7
			s2.1,28.2-12.9,33.4c-2,0.7-2.7,1.2-5.5,1.4c-27.1,5.1-57.7,0-86.8,1.4c-29.1,1.3-61-0.6-90.5,0c-29.5,0.6-58.9-0.3-88.7,0
			c-29.7,0.3-60.7-0.1-90.5,0s-58.8,0-88.7,0c-29.8,0-60.7,0.1-90.5,0c-29.8-0.1-58.9,0.3-88.7,0c-29.7-0.3-61,0.6-90.5,0
			s-59.5,1.3-88.7,0s-62.2,2.7-90.5,0c-28.4-2.7-63.5,6.6-88.7-1.4c-0.9,0-2.8,0-3.7,0c-28.7,0.9-23.8-28.8-24-44.5
			s-5.1-39.8,18.5-48.7c28.6-10.8,67.4,0.2,99.7-2.8s69.9,1.3,103.4,0c33.6-1.3,69.2,0.6,103.4,0c34.2-0.6,70.9,0.3,105.3,0
			c34.4-0.3,69.1,0.1,103.4,0c34.3-0.1,69.2,0,103.4,0c34.2,0,71.6-0.2,105.3,0c33.7,0.2,71.1-0.4,103.4,0
			c32.3,0.4,73.9-0.9,103.4,0C1032.2,37.9,1076.3,29.2,1082.1,56.5z"/>
	</g>
	<g>
		<path class="st42" d="M851.2,3.7c26.4,0,54.4,0.4,79.4-1.4C904.3,2.3,876.2,1.8,851.2,3.7z"/>
	</g>
	<g>
		<path class="st43" d="M8.9,124.7c3.6,4.8,14.4,6.8,20.3,8.3c4.2,0.4,8.7-0.3,12.9,0c0-5.2,3.1-9.8,1.8-15.3
			c0.5-20-0.9-41.8,1.8-61.2C48.6,37.1,66.6,29.3,92,30.1c25.5,0.8,55.4,0,81.3,0c20.9-4.3,41.9-17.3,62.8-22.3
			c-24.5,1-53-2.5-77.6-1.4s-54.5-0.3-77.6,0c-23.1,0.3-43.1,1.9-57.7,15C8.7,34.4,4.7,50.6,7.1,67.6S0.8,108.6,8.9,124.7z"/>
	</g>
	<g>
		<path class="st44" d="M236.1,7.8c-20.9,5-41.9,18-62.8,22.3c6.8,0,13.5,0,20.3,0c-1.5-0.2-6.2-1.7-7.4-2.8
			c47.2-23.6,108.7-11.9,162.5-16.7c-10.8-1.9-23.8-1.1-35.1-1.4c-11.3-0.3-26.4,0.6-36.9,0c-10.6-0.6-27.5,2.7-29.6-2.8
			C243.5,6.7,240.2,7.7,236.1,7.8z"/>
	</g>
	<g>
		<path class="st45" d="M193.6,30.1c41.3,0,82.5,0,123.8,0s82.5,0,123.8,0s82.5,0,123.8,0c41.3,0,82.4,0,123.8,0
			c41.4,0,82.3,0,123.8,0c41.5,0,82-0.1,123.8,0c41.7,0.1,80.1-0.8,121.9,1.4c41.8,2.2,31.4,44.4,31.4,68.2c0.3,1.1,3.5,3.5,1.8,5.6
			c3.7-2.5,1-7.6,1.8-11.1c3.2,1.9,0.3,9.6,7.4,5.6c1.6-1.4,14.1-4.6,18.5-7c1.2-2,4.1-4.5,7.4-4.2c-4.2-26.8,14.4-62.5-24-76.5
			c-10.6-1.6-18.4-2.2-31.4-2.8c-13-0.6-30.3,0.3-44.3,0c-14-0.3-29.9,0.1-44.3,0c-14.4-0.1-29.7,0.1-44.3,0
			c-14.6-0.1-29.6,0-44.3,0c-14.7,0-29.6,0-44.3,0c-14.7,0-29.6,0-44.3,0s-29.6,0.1-44.3,0c-14.7-0.1-29.7,0.2-44.3,0
			c-14.6-0.2-29.8,0.5-44.3,0c-14.5-0.5-28.6,1.1-42.5,1.4c-13.9,0.3-28.8-2.7-42.5-1.4c-13.7,1.3-29.7-0.3-35.1-1.4
			c-34.8,0-72,1-105.3-1.4c-33.1,0-66.7-1-99.7,0s-67-2.7-99.7,0c2,5.5,19,2.1,29.6,2.8c10.6,0.6,25.7-0.3,36.9,0
			c11.3,0.3,24.3-0.5,35.1,1.4c-53.8,4.8-115.4-6.9-162.5,16.7C187.4,28.4,192.1,29.9,193.6,30.1z"/>
	</g>
	<g>
		<path class="st46" d="M552,7.8c50,0,103.1,2.1,151.5-1.4c-85.6,0-171.2,0-256.7,0C480,8.9,517.1,7.8,552,7.8z"/>
	</g>
	<g>
		<path class="st47" d="M552,7.8c5.4,1,21.4,2.7,35.1,1.4c13.7-1.3,28.6,1.7,42.5,1.4c13.9-0.3,28-1.9,42.5-1.4
			c14.5,0.5,29.7-0.2,44.3,0c14.6,0.2,29.6-0.1,44.3,0c14.7,0.1,29.6,0,44.3,0s29.6,0,44.3,0c14.7,0,29.6,0,44.3,0
			c14.7,0,29.7-0.1,44.3,0c14.6,0.1,29.9-0.1,44.3,0c14.4,0.1,30.3-0.3,44.3,0c14,0.3,31.3-0.6,44.3,0c13,0.6,20.8,1.2,31.4,2.8
			c-37.4-13.6-86.4-3.1-129.3-5.6s-91,0.9-134.8,0c-43.9-0.9-90.7,0-134.8,0C655,10,601.9,7.8,552,7.8z"/>
	</g>
	<g>
		<path class="st48" d="M71.7,39.8C49.3,50.6,59,70.9,56.9,88.5s-1,35.3,20.3,44.5c0.9,0,2.8,0,3.7,0c81.8,0,163.8,0.4,245.7,0
			c81.8-0.4,163.9,1,245.7,0c81.8-1,164,2.4,245.7,0c81.6-2.4,164.4,5.2,245.7,0c2.9-0.2,3.5-0.7,5.5-1.4c5.9-5.3,6.5-23.3,8.8-32.3
			c2.3-9,1.8-13.9,0.4-21.9c-1.4-8.1,3.4-14.8,3.7-20.9c-5.8-27.3-49.9-18.6-79.4-19.5c-29.5-0.9-71.1,0.4-103.4,0
			c-32.3-0.4-69.8,0.2-103.4,0c-33.7-0.2-71.1,0-105.3,0c-34.2,0-69.1-0.1-103.4,0c-34.3,0.1-69-0.3-103.4,0
			c-34.4,0.3-71.1-0.6-105.3,0c-34.2,0.6-69.9-1.3-103.4,0c-33.6,1.3-71.1-3-103.4,0S100.3,29.1,71.7,39.8 M841.9,39.8
			c6-0.4,12.4,0,18.5,0c20.6,0,40.2,0,61,0c20.7,0,42,0,62.8,0c20.8,0,41.9-0.1,62.8,0c20.9,0.1,28.4,11.2,27.7,26.4
			s0.2,29.1-3.7,44.5c-3.9,15.4-17.8,18.2-38.8,16.7c-21-1.5-41.9,0.7-62.8,0c-20.9-0.7-41.9,0.3-62.8,0c-20.9-0.3-41.9,0.1-62.8,0
			c-20.9-0.1-41.9,0.1-62.8,0c-20.9-0.1-42,0-62.8,0c-20.8,0-40.2,0.1-61,0c-20.7-0.1-42,0.1-62.8,0c-20.8-0.1-42.1,0.2-62.8,0
			c-20.7-0.2-42.3,0.4-62.8,0c-20.5-0.4-40.3-1.7-61-1.4c-20.7,0.3-40.5,0.2-61,0s-39-2.3-59.2-0.1c-20.2,2.1-42.2-1.2-62.7,0.1
			s-42.4-1.4-62.8,0s-39.1-4.2-59.1-2.8c-20,1.4-28.5-9.4-40.6-13.9c0-5.6,0-11.1,0-16.7c-3.7,2.5-1,7.6-1.8,11.1
			C59,85.5,52.8,61.5,68,45.4c9.9,0.9,20.7-6.9,36.9-5.6c16.3,1.3,36.6-0.6,53.6,0c17,0.6,34.4-0.3,51.7,0c17.4,0.3,36-0.1,53.6,0
			s36-0.1,53.6,0c17.6,0.1,34.2,0,51.7,0s36,0,53.6,0s34.1,0,51.7,0s35.9,0,53.6,0c17.7,0,36,0,53.6,0s34.2,0.1,51.7,0
			c17.5-0.1,36.2,0.1,53.6,0c17.4-0.1,34.6,0.3,51.7,0c17.2-0.3,34.3-2.3,51.7-1.4C807.6,39.4,826.2,36.5,841.9,39.8z"/>
	</g>
	<g>
		<path class="st49" d="M860.4,39.8c15.9,1.2,34.5,1.7,51.7,1.4c17.2-0.3,36.6-0.1,53.6,0s37.5-0.5,53.6,0s38.4-3.9,42.5,8.3
			c3.2-5.4,9.6-0.3,7.4,4.2c-8-4.1,2.8,11,0,20.9s-2.2,20.3-8.8,29.5c-6.6,9.2-13.6,11.9-28.1,12.2c-14.5,0.3-24.8,2.4-40.6,1.4
			c-15.9-1-31,0.3-46.2-1.4c-15.2-1.7-32.8,0.6-48,0c-15.2-0.6-31.3-0.2-46.2,0c-14.8,0.2-31.3,2.8-46.2,1.4
			c-14.9-1.4-27.5-1.4-41.9-0.9c-14.4,0.5-30.3,1.1-44.9,0.9c-14.7-0.1-31.6,2.3-46.2,1.4s-33.6,3.4-35.1-9.7
			c-2.4,4.7-6.7,11-14.8,4.2c-0.4,8-2.9-1-1.8-4.2c-3.1,12.8-8.3-4.3-7.4,8.3c-3.8-7-1.6-6.8-5.5,0c-5.1,0.4-2-4.8-5.5-7
			c-6.5,15.3-34.7,7.3-55.4,9.7c-20.7,2.4-50.6-1.3-72,0s-43.3-1.3-65.9-1.9c-22.6-0.5-47.7-1.1-70.8-0.9
			c-23.1,0.1-46.5-0.7-68.5-0.1s-47.6-2.4-69.5-1.8c-21.9,0.7-46.5,0.1-68.3-1.4s-38.2,0-51-13c-12.9-13-8.9-25.5-8.8-42.3
			c0.1-16.7,28.1-18.1,50-16.6c21.9,1.5,47-2.5,70.2-1.4c23.1,1.1,48.4-0.5,72,0c23.7,0.5,48-0.2,72,0c24,0.2,49.8-0.1,73.9,0
			c24.1,0.1,48,0,72,0s48,0,72,0c24,0,48,0.1,72,0c24-0.1,48.1,0.2,72,0c24-0.2,48.2,0.4,72,0s49.7,1.4,72-1.4
			c-15.8-3.3-34.3-0.4-51.7-1.4c-17.4-0.9-34.6,1.1-51.7,1.4c-17.2,0.3-34.3-0.1-51.7,0c-17.4,0.1-36.1-0.1-53.6,0
			c-17.5,0.1-34.1,0-51.7,0s-35.9,0-53.6,0c-17.7,0-36,0-53.6,0s-34.1,0-51.7,0s-36,0-53.6,0s-34.2,0.1-51.7,0
			c-17.6-0.1-36,0.1-53.6,0s-36.2,0.3-53.6,0c-17.4-0.3-34.7,0.6-51.7,0c-17-0.6-37.3,1.3-53.6,0c-16.3-1.3-27.1,6.4-36.9,5.6
			c-15.2,16.1-9,40.1-7.4,58.4c0.9-3.5-1.9-8.7,1.8-11.1c0,5.6,0,11.1,0,16.7c12.1,4.5,20.6,15.3,40.6,13.9
			c20-1.4,38.7,4.2,59.1,2.8s42.3,1.3,62.8,0s42.4,2,62.7-0.1c20.2-2.2,38.8-0.1,59.2,0.1s40.3,0.3,61,0c20.7-0.3,40.4,1,61,1.4
			c20.5,0.4,42.1-0.2,62.8,0c20.7,0.2,42-0.1,62.8,0c20.8,0.1,42.1-0.1,62.8,0c20.7,0.1,40.2,0,61,0c20.8,0,41.9-0.1,62.8,0
			c20.9,0.1,41.9-0.1,62.8,0c20.9,0.1,41.9-0.3,62.8,0c20.9,0.3,41.9-0.7,62.8,0c20.9,0.7,41.8-1.5,62.8,0
			c21,1.5,34.9-1.3,38.8-16.7c3.9-15.4,2.9-29.3,3.7-44.5s-6.8-26.3-27.7-26.4c-20.9-0.1-42,0-62.8,0c-20.8,0-42.1,0-62.8,0
			C900.7,39.8,881,39.8,860.4,39.8z"/>
	</g>
	<g>
		<path class="st50" d="M77.2,133c-21.3-9.2-22.4-26.9-20.3-44.5s-7.7-37.9,14.8-48.7c-23.5,8.9-18.6,33-18.5,48.7
			S48.5,133.9,77.2,133z"/>
	</g>
	<g>
		<path class="st51" d="M860.4,39.8c-6.1,0-12.4-0.4-18.5,0c-22.3,2.8-48.2,1-72,1.4s-48.1-0.2-72,0c-24,0.2-48-0.1-72,0
			c-24,0.1-48,0-72,0c-24,0-48,0-72,0s-47.9,0.1-72,0c-24.1-0.1-49.9,0.2-73.9,0c-24-0.2-48.4,0.5-72,0c-23.7-0.5-48.9,1.1-72,0
			c-23.1-1.1-48.3,2.9-70.2,1.4c-21.9-1.5-49.9-0.1-50,16.6c-0.1,16.7-4,29.3,8.8,42.3c12.9,13,29.2,11.5,51,13s46.5,2.1,68.3,1.4
			c21.9-0.7,47.5,2.4,69.5,1.8s45.4,0.2,68.5,0.1c23.1-0.1,48.2,0.4,70.8,0.9c22.6,0.5,44.4,3.1,65.9,1.9s51.3,2.4,72,0
			c20.7-2.4,48.9,5.6,55.4-9.7c3.6,2.1,0.4,7.4,5.5,7c3.9-6.8,1.7-7,5.5,0c-0.9-12.7,4.3,4.5,7.4-8.3c-1.1,3.2,1.5,12.2,1.8,4.2
			c8.1,6.8,12.4,0.6,14.8-4.2c1.5,13.1,20.5,8.8,35.1,9.7s31.5-1.5,46.2-1.4c14.7,0.1,30.6-0.5,44.9-0.9c14.4-0.4,27-0.4,41.9,0.9
			c14.9,1.4,31.3-1.2,46.2-1.4c14.8-0.2,31-0.6,46.2,0c15.2,0.6,32.8-1.7,48,0c15.2,1.7,30.3,0.4,46.2,1.4c15.9,1,26.1-1.1,40.6-1.4
			c14.5-0.3,21.5-3,28.1-12.2c6.6-9.2,6-19.7,8.8-29.5s-8-25,0-20.9c2.2-4.5-4.2-9.6-7.4-4.2c-4.1-12.2-26.4-7.8-42.5-8.3
			s-36.6,0.1-53.6,0s-36.4-0.3-53.6,0C895,41.5,876.3,41,860.4,39.8 M286,67.6C284.1,52.4,307.9,70.7,286,67.6 M579.7,70.4
			c5.5,0,11.1,0,16.6,0c1.9,6.5,6.2,12.5,5.5,19.5c7.1-6.2,3.4-22.8,20.3-19.5c0.2,9.5-11.5,13.1-12.5,22.6
			c-1,9.5-15.3,17.4-15.6,7.7c-0.3-9.7,2.3-17.8-6.6-25.1c-8.8-7.2-10.4,19.1,1.4,18.4c-14.6,7.9-14.5-3-16.6-11.1
			c-2.1-8.1-8.3-14.3,0-22.3C576.7,62.6,578.6,66.9,579.7,70.4 M112.3,96.8c0-11.1,0-22.3,0-33.4c17.2-1.7,39.7,0.6,40.6,16.7
			C153.9,96.3,129.6,99.2,112.3,96.8 M511.3,64.9c-3,8.2,10.3,4.9,16.6,5.6c3.8,5.7,4.1,13.2,9.2,18.1c-0.4-3.7,8.1-23.6,14.3-16.3
			c6.2,7.3-9.4,15.9-8.6,23.4c0.8,7.5-16.4,17.2-22.3,6.9c18.7-2.9,2.1-19,0-27.8c-13.7,0.8-11,17.5,1.8,18.1
			c-2.4,6.6-13.2,4.6-18-0.3c-4.8-4.9,2.2-16-9.7-16.3C496.3,70.3,502.1,64.7,511.3,64.9 M694.2,85.7c-7.7,0.9-17.8-1.8-24,1.4
			c7.1,8.4,16-1.4,24,4.2c-11.9,12.2-40.4,2.4-33.3-12.5C668,63.7,696.9,69.5,694.2,85.7 M177,70.4c22.2,3.3,14,31.4-9.2,26.4
			S155,67.2,177,70.4 M245.3,96.8c-19.2,3.6-1.1-14.7-11.6-19.1c-10.4-4.5-9.8,13.7-8.8,19.1c-18.9,3.3-1.5-14-11.7-19
			c-10.2-5.1-9.8,13.7-8.7,19c-17.7,2.9-8.1-9.9-11.1-18.1s13.4-11.1,22.2-8.3c8.8,2.7,16.3-2.6,25.4,1.8
			C250.2,76.6,243,90.1,245.3,96.8 M280.4,96.8c-10.9-7.3-19.8,8.9-30-2.4C240.3,83,268.6,82.9,267.5,76c-6.8,3.8-20.4,1.5-14.3-3.8
			c6.1-5.3,20.2-2.9,24,2.1C281,79.3,278.2,90.9,280.4,96.8 M295.2,96.8c-17.5,1.4-5.9-18.2-9.2-26.4
			C303.1,70,292.1,88.7,295.2,96.8 M332.1,96.8c-18.8,4.3-1.6-16.6-12.5-19.8c-10.9-3.2-10.8,14.7-9.7,19.8
			c-17.5,1.4-5.9-18.2-9.2-26.4c8.8,4.8,18.6-3.9,27.2,1.8C336.6,77.8,330,89.4,332.1,96.8 M383.9,85.7c-7.4,0-14.8,0-22.2,0
			c-1,9.4,13.6,4,20.3,4.2c-8,14.2-36.9,5.1-30-10C359,64.7,385.9,69.6,383.9,85.7 M433.7,74.6c20.7-17.4,36.7,20.1,14.8,22.3
			c0.3-6.7,0.1-13.2-1.8-19.5c-14.5-0.2-7.7,14-9.2,20.9c-19.6,3-0.9-14-11-19.6c-10.1-5.6-11.4,12.5-9.4,18.2
			C400.4,99.3,412,82.4,406,76c-13.1,1.6-8.5,13.6-9.2,20.9c-15,3.4-13.7-28.7-0.6-26C409.3,73.6,423.5,67.4,433.7,74.6
			 M472.5,106.6c-17.3-2.2-10.5-25.6-9.2-36.2c11.7,4.3,27.1-6.1,31.4,11.1C498.9,98.8,469.5,92.3,472.5,106.6 M633.2,96.8
			c4.6,13.7-11.3,12.7-9.2,1.4c2.1-11.3-1.6-17,0-27.8c10.9,1.5,29.4-3.3,33.1,8.5C660.8,90.7,648.9,100.3,633.2,96.8 M721.9,78.8
			c-4.9-0.8-9.5-4.9-14.8-1.4c6.9,3.1,22.7,7.5,17,15.6c-5.7,8.1-25.9,4.9-26.3-3.1c6.6-0.9,11.8,2.3,18.5,1.4
			C712,86.1,691.8,84,698.4,75C705.1,66,729.2,68.9,721.9,78.8 M734.8,88.5c5.7,0.7,4.5,9.4-1.9,8.3
			C726.5,95.7,728.8,87.8,734.8,88.5z"/>
	</g>
	<g>
		<path class="st52" d="M1069.1,131.6c15.1-5.2,13.7-21.4,12.9-33.4s2.6-29.5,0-41.7c-0.3,6.1-5.1,12.8-3.7,20.9
			c1.4,8.1,1.9,12.9-0.4,21.9C1075.6,108.3,1075,126.3,1069.1,131.6z"/>
	</g>
	<g>
		<path class="st53" d="M286,67.6C307.9,70.7,284.1,52.4,286,67.6z"/>
	</g>
	<g>
		<path class="st54" d="M579.7,70.4c-1.1-3.6-3-7.8-7.4-9.7c-8.3,8-2.1,14.1,0,22.3c2.1,8.1,2,19.1,16.6,11.1
			c-11.8,0.7-10.3-25.6-1.4-18.4c8.8,7.2,6.3,15.4,6.6,25.1c0.3,9.7,14.6,1.8,15.6-7.7c1-9.5,12.7-13,12.5-22.6
			c-17-3.3-13.2,13.2-20.3,19.5c0.6-7-3.6-13-5.5-19.5C590.7,70.4,585.2,70.4,579.7,70.4z"/>
	</g>
	<g>
		<path class="st55" d="M112.3,96.8c17.2,2.4,41.5-0.5,40.6-16.7C152,64,129.5,61.8,112.3,63.5C112.3,74.6,112.3,85.7,112.3,96.8
			 M123.4,91.3c0-7,0-13.9,0-20.9C146.8,66.2,147.2,96,123.4,91.3z"/>
	</g>
	<g>
		<path class="st56" d="M511.3,64.9c-9.2-0.2-15,5.4-16.6,11.1c11.9,0.3,4.9,11.4,9.7,16.3c4.8,4.9,15.6,7,18,0.3
			c-12.8-0.6-15.5-17.3-1.8-18.1c2.1,8.8,18.7,24.9,0,27.8c5.9,10.3,23.1,0.6,22.3-6.9c-0.8-7.5,14.8-16.1,8.6-23.4
			c-6.2-7.3-14.7,12.6-14.3,16.3c-5.2-4.9-5.5-12.4-9.2-18.1C521.7,69.8,508.3,73.1,511.3,64.9z"/>
	</g>
	<g>
		<path class="st57" d="M694.2,85.7c2.7-16.2-26.2-22-33.3-7c-7.1,15,21.4,24.7,33.3,12.5c-8-5.6-16.9,4.2-24-4.2
			C676.3,83.9,686.5,86.6,694.2,85.7 M683.1,78.8C665.6,86.5,673,67.6,683.1,78.8z"/>
	</g>
	<g>
		<path class="st58" d="M123.4,91.3c23.8,4.7,23.3-25.1,0-20.9C123.4,77.4,123.4,84.3,123.4,91.3z"/>
	</g>
	<g>
		<path class="st59" d="M177,70.4c-22-3.3-32.5,21.4-9.2,26.4S199.2,73.7,177,70.4 M177,77.4c9.1,3.3,1.8,18-8.6,13.5
			C157.9,86.3,166.6,73.6,177,77.4z"/>
	</g>
	<g>
		<path class="st60" d="M245.3,96.8c-2.4-6.7,4.9-20.3-4.2-24.7c-9.1-4.4-16.6,1-25.4-1.8c-8.8-2.7-25.1,0.2-22.2,8.3
			s-6.6,21,11.1,18.1c-1.2-5.4-1.5-24.1,8.7-19c10.2,5.1-7.3,22.3,11.7,19c-1.1-5.4-1.7-23.6,8.8-19.1
			C244.2,82.2,226.1,100.5,245.3,96.8z"/>
	</g>
	<g>
		<path class="st61" d="M280.4,96.8c-2.2-5.9,0.6-17.6-3.2-22.6c-3.8-5-17.9-7.4-24-2.1c-6.1,5.3,7.5,7.6,14.3,3.8
			c1.1,6.9-27.2,7.1-17.1,18.4C260.6,105.8,269.5,89.6,280.4,96.8 M269.3,85.7C268,100.9,247.7,83.3,269.3,85.7z"/>
	</g>
	<g>
		<path class="st61" d="M295.2,96.8c-3.1-8.2,7.9-26.9-9.2-26.4C289.3,78.7,277.7,98.3,295.2,96.8z"/>
	</g>
	<g>
		<path class="st62" d="M332.1,96.8c-2.1-7.4,4.5-19.1-4.2-24.7c-8.6-5.6-18.4,3-27.2-1.8c3.3,8.2-8.3,27.9,9.2,26.4
			c-1.1-5.1-1.2-23,9.7-19.8C330.6,80.2,313.4,101.1,332.1,96.8z"/>
	</g>
	<g>
		<path class="st63" d="M383.9,85.7c2-16.1-24.9-21-31.8-5.9c-6.9,15.1,21.9,24.2,30,10c-6.7-0.2-21.4,5.2-20.3-4.2
			C369.1,85.7,376.5,85.7,383.9,85.7 M372.8,81.5C352.2,85.1,370,68.2,372.8,81.5z"/>
	</g>
	<g>
		<path class="st64" d="M433.7,74.6c-10.2-7.2-24.5-1-37.6-3.7c-13.1-2.7-14.4,29.4,0.6,26c0.7-7.2-3.9-19.2,9.2-20.9
			c5.9,6.5-5.7,23.3,11.1,20.9c-2-5.6-0.7-23.8,9.4-18.2c10.1,5.6-8.7,22.6,11,19.6c1.5-6.9-5.3-21,9.2-20.9
			c2,6.3,2.2,12.8,1.8,19.5C470.4,94.7,454.4,57.2,433.7,74.6z"/>
	</g>
	<g>
		<path class="st65" d="M472.5,106.6c-3.1-14.3,26.4-7.8,22.1-25c-4.3-17.2-19.7-6.8-31.4-11.1C462,81,455.2,104.4,472.5,106.6
			 M483.6,77.4c8.4,3.1,1.6,16.9-7.4,13.9C467.2,88.3,472.3,73.3,483.6,77.4z"/>
	</g>
	<g>
		<path class="st61" d="M633.2,96.8c15.6,3.4,27.6-6.2,23.9-18c-3.7-11.8-22.2-7-33.1-8.5c-1.6,10.8,2.1,16.5,0,27.8
			C621.9,109.5,637.8,110.5,633.2,96.8 M644.3,76c8.1,2.7,3,18.5-6.8,14.8C627.7,87.2,634.6,72.8,644.3,76z"/>
	</g>
	<g>
		<path class="st66" d="M683.1,78.8C673,67.6,665.6,86.5,683.1,78.8z"/>
	</g>
	<g>
		<path class="st67" d="M372.8,81.5C370,68.2,352.2,85.1,372.8,81.5z"/>
	</g>
	<g>
		<path class="st68" d="M644.3,76c-9.8-3.2-16.6,11.2-6.8,14.8C647.4,94.4,652.5,78.7,644.3,76z"/>
	</g>
	<g>
		<path class="st69" d="M177,77.4c-10.4-3.8-19.1,8.9-8.6,13.5C178.8,95.4,186.1,80.7,177,77.4z"/>
	</g>
	<g>
		<path class="st70" d="M483.6,77.4c-11.3-4.1-16.4,10.9-7.4,13.9C485.2,94.3,492,80.4,483.6,77.4z"/>
	</g>
	<g>
		<path class="st71" d="M269.3,85.7C247.7,83.3,268,100.9,269.3,85.7z"/>
	</g>
	<g>
		<path class="st72" d="M734.8,88.5c-6-0.7-8.3,7.2-1.9,8.3C739.3,97.9,740.5,89.2,734.8,88.5z"/>
	</g>
	<g>
		<path class="st73" d="M1119,92.7c-4.3,2.3-16.8,5.6-18.5,7c-2.1,1.8-7.6,8.2-7.4,12.5c6.5-1.8,13.4-4.9,18.5-8.3
			c0.8-2.2-2.5-3.4-1.8-5.6c6.9,0.2,12-2.4,14.8-7C1122.2,90.8,1120.9,92.3,1119,92.7z"/>
	</g>
	<g>
		<path class="st74" d="M1089.5,99.6c0,12.7,6.2,32.4-12.9,38.9c0.4,0,9.5,4.6,12.9,5.6c-15.6-0.2-32.6,3.6-49.9,4.2
			c3.3,2.8,10.1,0.7,14.8,1.4c0.3,2.6,1.4,4.1,5.5,5.6c-10.7,0.7-3.5,4.7-22.2,2.8c-18.7-1.9-43.6-3.3-62.8-2.8
			c-19.2,0.5-19.7-0.3-35.1,0s-19.6-0.1-33.2,0c-13.7,0.1-19.6,0-33.2,0c-13.7,0-17.8,0-33.2,0c-15.5,0-15.6,0-35.1,0
			c-19.5,0-46.9,0-66.5,0c-19.6,0-17.5,0-35.1,0c8.2,3.1,20,0.5,29.6,1.4c-50,5.7-104.9,1.5-157,2.8c28-3.4,58.9-2.8,88.7-2.8
			c-107.2-2.1-219.7-3.2-326.9,1.4c6.9,4.1,16.7-1.2,24,1.4c-11,2.3-28,2.4-38.8,0c7.4,1.7,11.9-2.6,18.5-2.8
			c-9.9-4.1-23.5,7-33.2,2.8c-4-0.1-8.5,1-11.1,2.8c43.7,0,87.4,0,131.1,0c43.7,0,87.4,0,131.1,0s87.5,0.1,131.1,0
			c43.7-0.1,87.5,0.1,131.1,0s87.6,0.3,131.1,0s87.9,0.6,131.1,0c43.3-0.6,43.4-41.1,42.5-65.4c-4.4,2.8-10.3,4.7-14.8,7
			c-5.1,3.4-12,6.6-18.5,8.3c-0.2-4.3,5.2-10.7,7.4-12.5c-7.1,4-4.2-3.6-7.4-5.6c-0.9,3.5,1.9,8.7-1.8,11.1
			C1092.9,103.2,1089.7,100.7,1089.5,99.6z"/>
	</g>
	<g>
		<path class="st75" d="M29.2,133c4.2,1.1,9.3,3.5,14.8,2.8c-1.3-5,2.3-9,1.8-13.9c-0.1-1.9-1.5-3.1-1.8-4.2
			c1.2,5.5-1.9,10.1-1.8,15.3C37.9,132.7,33.5,133.4,29.2,133z"/>
	</g>
	<g>
		<path class="st76" d="M29.2,133c-6-1.6-16.7-3.6-20.3-8.3c0.8,1.9,3.3,3.2,5.5,4.2c-3.5,3.3-2.6,6.9-1.8,9.7
			c2-5.6,23.1,8,33.4,1.5c10.3-6.5,24.9,2.7,38.7,1.3s33.1,0.6,48,0s32.7,0.4,48,0c15.3-0.4,30.6,0.3,46.2,0c15.6-0.3,32.3,0.4,48,0
			c15.7-0.4,32.5,0.9,48,0c15.6-0.9,32.2,1.3,46.2,1.4c4.8-1,9.5-1.9,14.8-1.4c-36.4-3.6-82.8,0-120.1-1.4s-87.1,2.1-121.9,0
			s-84.2,10.9-96-18.1c0.4,4.9-3.2,8.9-1.8,13.9C38.6,136.5,33.4,134.1,29.2,133z"/>
	</g>
	<g>
		<path class="st77" d="M1063.6,144.3c-81.3-12.5-164,5.6-245.7,0c-81.6-5.6-163.9,2.5-245.7,0c-81.8-2.5-163.8,0.9-245.7,0
			c-81.8-0.9-163.8,0-245.7,0c25.1-19.2,60.3,3.2,88.7-3.3s61.3,3,90.5,0s59.1,1.3,88.7,0s60.8,0.6,90.5,0c29.7-0.6,58.9,0.2,88.7,0
			c29.8-0.2,60.7,0,90.5,0c29.8,0,58.9-0.2,88.7,0c29.8,0.2,60.8-0.6,90.5,0c29.7,0.6,59.1-1.5,88.7,0c29.5,1.5,61.4-3.2,90.5,0
			C1005.9,144.2,1036.5,132.2,1063.6,144.3z"/>
	</g>
	<g>
		<path class="st78" d="M12.6,138.6c6.3,24.4,43.2,24.4,72,23.6s72.8,0.8,103.4,0s70.3,3.1,98.5-3.7c28.2-6.9,54-11,82.5-15.7
			c-13.9-0.1-30.6-2.3-46.2-1.4c-15.6,0.9-32.3-0.4-48,0c-15.7,0.4-32.5-0.3-48,0c-15.6,0.3-30.8-0.4-46.2,0
			c-15.3,0.4-33.1-0.6-48,0s-34.2-1.4-48,0s-28.4-7.8-38.7-1.3C35.7,146.6,14.6,133,12.6,138.6z"/>
	</g>
	<g>
		<path class="st79" d="M308.1,159.4c9.8,4.2,23.4-6.9,33.2-2.8c-6.6,0.2-11.1,4.5-18.5,2.8c10.8,2.4,27.8,2.3,38.8,0
			c-7.3-2.6-17.1,2.7-24-1.4c107.2-4.5,219.7-3.5,326.9-1.4c-29.7,0-60.7-0.6-88.7,2.8c52.1-1.3,107,2.9,157-2.8
			c-9.5-0.8-21.4,1.7-29.6-1.4c17.6,0,15.5,0,35.1,0c19.6,0,47,0,66.5,0c19.5,0,19.6,0,35.1,0c15.5,0,19.6,0,33.2,0
			c13.7,0,19.6,0.1,33.2,0c13.7-0.1,17.9,0.3,33.2,0s15.9,0.5,35.1,0c19.2-0.5,44.1,0.8,62.8,2.8c18.7,1.9,11.5-2.1,22.2-2.8
			c-4.2-1.5-5.2-3-5.5-5.6c-4.7-0.7-11.5,1.4-14.8-1.4c17.2-0.5,34.3-4.3,49.9-4.2c-3.4-1-12.6-5.5-12.9-5.6
			c-17.8-1.8-39.4,5.3-59.1,2.8c-19.7-2.6-40.9,1.2-61,0c-20-1.2-40.7,0.5-61,0c-20.2-0.5-40.7,0.2-61,0c-20.3-0.2-40.6,0.1-61,0
			c-20.4-0.1-40.5,0-61,0c-20.5,0-42.4,0-62.8,0s-40.7,0-61,0c-20.3,0-40.9,0-61,0c-20.1,0-41.2,0-61,0c-19.7,0-41.9,0.1-61,0
			c-19-0.1-32.9,5-49.8,8.4C339.3,153.1,324.9,156.4,308.1,159.4z"/>
	</g>
	<g>
		<path class="st80" d="M79.1,169.2c-0.1,0,0-1.4,0-1.4c-8,0-16,0.1-24,0C62,168.4,70.9,169.2,79.1,169.2z"/>
	</g>
	<rect x="105.6" y="41.2" class="st51" width="721.6" height="70.9"/>
</g>
</svg>
